<svg width="40" height="40" viewBox="0 0 40 40" fill="none" xmlns="http://www.w3.org/2000/svg">
<g clip-path="url(#clip0_2_68)">
<path fill-rule="evenodd" clip-rule="evenodd" d="M20 18.75C17.9288 18.75 16.25 17.0712 16.25 15C16.25 12.9288 17.9288 11.25 20 11.25C22.0712 11.25 23.75 12.9288 23.75 15C23.75 17.0712 22.0712 18.75 20 18.75ZM20 8.75C16.5487 8.75 13.75 11.5475 13.75 15C13.75 18.4525 16.5487 21.25 20 21.25C23.4513 21.25 26.25 18.4525 26.25 15C26.25 11.5475 23.4513 8.75 20 8.75ZM20 36.25C17.9213 36.2612 7.5 20.2262 7.5 15C7.5 8.0975 13.0963 2.5 20 2.5C26.9037 2.5 32.5 8.0975 32.5 15C32.5 20.1562 22.0462 36.2612 20 36.25ZM20 0C11.7163 0 5 6.71625 5 15C5 21.2725 17.5063 40.0137 20 40C22.455 40.0137 35 21.1875 35 15C35 6.71625 28.2838 0 20 0Z" fill="#FF0000"/>
</g>
<defs>
<clipPath id="clip0_2_68">
<rect width="40" height="40" fill="white"/>
</clipPath>
</defs>
</svg>
