<svg width="20" height="20" viewBox="0 0 20 20" fill="none" xmlns="http://www.w3.org/2000/svg">
<g clip-path="url(#clip0_13_44)">
<path d="M14.4516 10.6263C15.3165 9.74858 15.9027 8.63481 16.1365 7.42495C16.3703 6.21508 16.2412 4.96311 15.7655 3.8264C15.2897 2.68969 14.4886 1.71896 13.4628 1.03624C12.437 0.353512 11.2322 -0.0107422 10 -0.0107422C8.76776 -0.0107422 7.56301 0.353512 6.53719 1.03624C5.51137 1.71896 4.71025 2.68969 4.23453 3.8264C3.75882 4.96311 3.62973 6.21508 3.8635 7.42495C4.09727 8.63481 4.68346 9.74858 5.5484 10.6263C3.91573 11.2681 2.51371 12.3858 1.5243 13.8345C0.534902 15.2831 0.00382136 16.9957 2.00941e-07 18.75C-9.29127e-05 18.9142 0.0321757 19.0768 0.0949611 19.2285C0.157747 19.3802 0.249817 19.518 0.365909 19.6341C0.482001 19.7502 0.619837 19.8423 0.771536 19.9051C0.923235 19.9678 1.08582 20.0001 1.25 20H18.75C18.9142 20.0001 19.0768 19.9678 19.2285 19.9051C19.3802 19.8423 19.518 19.7502 19.6341 19.6341C19.7502 19.518 19.8423 19.3802 19.905 19.2285C19.9678 19.0768 20.0001 18.9142 20 18.75C19.9962 16.9957 19.4651 15.2831 18.4757 13.8345C17.4863 12.3858 16.0843 11.2681 14.4516 10.6263ZM10 2.50002C10.7417 2.50002 11.4667 2.71996 12.0834 3.13201C12.7001 3.54407 13.1807 4.12974 13.4645 4.81496C13.7484 5.50018 13.8226 6.25418 13.6779 6.98161C13.5333 7.70904 13.1761 8.37723 12.6516 8.90167C12.1272 9.42612 11.459 9.78327 10.7316 9.92797C10.0042 10.0727 9.25016 9.9984 8.56494 9.71457C7.87971 9.43074 7.29404 8.9501 6.88199 8.33341C6.46993 7.71673 6.25 6.9917 6.25 6.25002C6.2511 5.2558 6.64655 4.30261 7.34957 3.59959C8.05259 2.89657 9.00578 2.50113 10 2.50002ZM2.62452 17.5C2.91496 16.0894 3.68272 14.8219 4.79846 13.9112C5.91421 13.0004 7.30975 12.5021 8.75 12.5H11.25C12.6903 12.5021 14.0858 13.0004 15.2015 13.9112C16.3173 14.8219 17.085 16.0894 17.3755 17.5H2.62452Z" fill="white"/>
</g>
<defs>
<clipPath id="clip0_13_44">
<rect width="20" height="20" fill="white"/>
</clipPath>
</defs>
</svg>
